<svg id="Layer_1" data-name="Layer 1" xmlns="http://www.w3.org/2000/svg" viewBox="0 0 24 24"><defs><style>.cls-1{fill:#fff;}.cls-2{fill:#e93237;}</style></defs><title>Artboard 7</title><rect class="cls-1" x="0.33" y="0.33" width="23.35" height="23.35" rx="3.89"/><path class="cls-2" d="M12.64,3.82c-2.46,0-3.84,1.31-3.84,2.89,0,1.34.81,2.12,2.54,2.88C12.72,6.45,14.67,5,17,5h.23A9.56,9.56,0,0,0,12.64,3.82Zm.68,10.36C11.94,17.36,10.12,19,7.2,19a6.32,6.32,0,0,1-1.92-.28,11.57,11.57,0,0,0,5.42,1.48c3,0,4.45-1.4,4.45-3.15A3.08,3.08,0,0,0,13.32,14.18Z"/><path class="cls-2" d="M19.16,17.12c0-.14,0-.29,0-.44,0-2.72-1.52-4.46-4.5-5.79.72-1.38,1.49-2,2.75-2,1.61,0,2.95,1.35,2.95,3.75A8.85,8.85,0,0,1,19.16,17.12Z"/><path class="cls-2" d="M17.21,5H17c-2.31,0-4.26,1.48-5.64,4.62C9.61,8.83,8.8,8.05,8.8,6.71c0-1.58,1.38-2.89,3.84-2.89A9.56,9.56,0,0,1,17.21,5Z"/><path class="cls-2" d="M10,12.83c-.83,1.58-1.76,2.22-3.17,2.22-1.79,0-3.22-1.39-3.22-4.35A11,11,0,0,1,5.05,5.56a5.59,5.59,0,0,0-.23,1.58C4.82,9.49,6.49,11.47,10,12.83Z"/><path class="cls-2" d="M15.15,17c0,1.75-1.42,3.15-4.45,3.15A11.57,11.57,0,0,1,5.28,18.7,6.32,6.32,0,0,0,7.2,19c2.92,0,4.74-1.62,6.12-4.8A3.08,3.08,0,0,1,15.15,17Z"/></svg>