<svg id="Layer_1" data-name="Layer 1" xmlns="http://www.w3.org/2000/svg" viewBox="0 0 682.04 146.62"><defs><style>.cls-1{fill:#e93237;}</style></defs><title>Artboard 5</title><path class="cls-1" d="M78.85,7.14c-19.91,0-31,10.62-31,23.36,0,10.87,6.55,17.15,20.52,23.32,11.17-25.34,27-37.37,45.57-37.37.62,0,1.24,0,1.87,0A76.9,76.9,0,0,0,78.85,7.14Zm5.51,83.8c-11.17,25.7-25.88,38.83-49.46,38.83a51,51,0,0,1-15.57-2.33c10.05,5.91,27.31,12,43.84,12,24.51,0,36-11.33,36-25.48C99.16,104,94.81,97,84.36,90.94Z"/><path class="cls-1" d="M131.59,114.74c.09-1.18.13-2.38.13-3.58,0-22-12.29-36.07-36.34-46.79,5.81-11.21,12.05-16.5,22.17-16.5,13,0,23.92,10.85,23.92,30.29A72.2,72.2,0,0,1,131.59,114.74Z"/><path class="cls-1" d="M115.8,16.49c-.63,0-1.25,0-1.87,0-18.62,0-34.4,12-45.57,37.37-14-6.17-20.52-12.45-20.52-23.32,0-12.74,11.1-23.35,31-23.36A76.9,76.9,0,0,1,115.8,16.49Z"/><path class="cls-1" d="M57.62,80C50.91,92.76,43.38,98,32,98,17.51,98,5.91,86.76,5.91,62.83c0-15.47,5.76-31.59,11.57-41.55A45.13,45.13,0,0,0,15.67,34C15.67,53.06,29.15,69,57.62,80Z"/><path class="cls-1" d="M99.17,114c0,14.15-11.49,25.48-36,25.48-16.53,0-33.79-6.12-43.84-12a51,51,0,0,0,15.57,2.33c23.58,0,38.29-13.13,49.46-38.83C94.81,97,99.16,104,99.17,114Z"/><path d="M169,87l22.6-1.42q.74,5.51,3,8.39,3.68,4.68,10.49,4.67,5.1,0,7.84-2.38a7.17,7.17,0,0,0,2.76-5.54,7.06,7.06,0,0,0-2.62-5.35q-2.62-2.36-12.17-4.46-15.63-3.51-22.29-9.33a18.77,18.77,0,0,1-6.72-14.85,20.19,20.19,0,0,1,3.44-11.2,22.78,22.78,0,0,1,10.33-8.28q6.9-3,18.91-3,14.75,0,22.47,5.48t9.21,17.44l-22.4,1.31q-.88-5.19-3.75-7.55t-7.89-2.36q-4.14,0-6.24,1.76a5.37,5.37,0,0,0-2.1,4.27,4.3,4.3,0,0,0,1.73,3.31c1.12,1,3.78,2,8,2.83q15.59,3.36,22.32,6.79A23.47,23.47,0,0,1,235.73,76a21.55,21.55,0,0,1,3.07,11.38A24.41,24.41,0,0,1,234.71,101a25.55,25.55,0,0,1-11.44,9.47q-7.34,3.23-18.51,3.23-19.62,0-27.17-7.56T169,87Z"/><path d="M268.8,74.75,248.4,72.6a22.88,22.88,0,0,1,3.33-8.42A18.37,18.37,0,0,1,258,58.85a26.17,26.17,0,0,1,8.07-2.51,64.63,64.63,0,0,1,11.12-.9,88,88,0,0,1,15.42,1.08A19.91,19.91,0,0,1,302.32,61a15.9,15.9,0,0,1,4.3,6.69A24.16,24.16,0,0,1,308.19,76v24.6a29.87,29.87,0,0,0,.5,6.17,27.69,27.69,0,0,0,2.18,5.69h-20a20.64,20.64,0,0,1-1.57-3.28,24.06,24.06,0,0,1-.74-3.54,27.74,27.74,0,0,1-8.34,5.77A34.64,34.64,0,0,1,267,113.67q-10,0-15.14-4.62a14.67,14.67,0,0,1-5.16-11.38,14.93,14.93,0,0,1,3.72-10.44q3.72-4.1,13.75-6.08,12-2.41,15.57-3.39a70.75,70.75,0,0,0,7.56-2.54c0-2.62-.55-4.46-1.63-5.51s-3-1.57-5.72-1.57c-3.49,0-6.12.56-7.86,1.68Q270.06,71.13,268.8,74.75ZM287.32,86q-4.41,1.57-9.18,2.78c-4.34,1.15-7.08,2.29-8.24,3.41a5.47,5.47,0,0,0,0,8,7.45,7.45,0,0,0,5.17,1.6,13.35,13.35,0,0,0,6.64-1.73A10.49,10.49,0,0,0,286,95.86a14.09,14.09,0,0,0,1.29-6.48Z"/><path d="M379.68,112.41H359.75v-9a29.56,29.56,0,0,1-9,7.92,24,24,0,0,1-11.15,2.36q-8.81,0-13.82-5.28t-5-16.23V56.7h21.45V87.33q0,5.25,1.94,7.45A6.9,6.9,0,0,0,349.63,97a7.79,7.79,0,0,0,6.27-2.94q2.43-2.94,2.44-10.54V56.7h21.34ZM349.79,34.2h18.35L351.2,49.88H341Z"/><path d="M451.28,35.51v76.9h-20v-8.24q-4.2,5.25-7.66,7.08a21.86,21.86,0,0,1-10.28,2.42Q402,113.67,396,105t-6-21q0-13.85,6.64-21.19a21.71,21.71,0,0,1,16.86-7.35,23.5,23.5,0,0,1,9.05,1.68,20.59,20.59,0,0,1,7.21,5V35.51ZM429.88,84.4q0-6.56-2.78-9.79a8.88,8.88,0,0,0-7-3.22,7.75,7.75,0,0,0-6.24,3.09q-2.52,3.1-2.52,10.39,0,6.82,2.6,10A8,8,0,0,0,420.33,98a8.6,8.6,0,0,0,6.82-3.19Q429.88,91.63,429.88,84.4Z"/><path d="M526.13,89.85h-42.8q.57,5.15,2.78,7.66a10.12,10.12,0,0,0,8.08,3.62,12.15,12.15,0,0,0,6-1.57A14.24,14.24,0,0,0,503.89,96l21,1.94q-4.83,8.4-11.64,12t-19.57,3.65q-11.06,0-17.41-3.13a25.56,25.56,0,0,1-10.52-9.91,29.91,29.91,0,0,1-4.17-16q0-13.06,8.37-21.14t23.11-8.08q12,0,18.88,3.62a24.49,24.49,0,0,1,10.54,10.49q3.62,6.89,3.62,17.89ZM504.41,79.62c-.41-4.12-1.53-7.08-3.33-8.86a10.44,10.44,0,0,0-15.23,1.36q-2,2.52-2.47,7.5Z"/><path d="M596.42,112.41h-64.1A40,40,0,0,1,539,94.55q5.58-8.37,21-19.75,9.39-7,12-10.6a11.86,11.86,0,0,0,2.63-6.87,8,8,0,0,0-2.6-6,9.9,9.9,0,0,0-13.22.08q-2.6,2.56-3.49,9.07l-21.4-1.73q1.26-9,4.62-14.08A21.37,21.37,0,0,1,548,36.9q6.1-2.7,16.91-2.7,11.28,0,17.55,2.57a21.4,21.4,0,0,1,9.86,7.9,20.85,20.85,0,0,1,3.59,11.93A24.43,24.43,0,0,1,591.77,70q-4.11,6.39-15,14-6.45,4.47-8.63,6.24c-1.45,1.19-3.16,2.75-5.11,4.67h33.36Z"/><path d="M642.26,98H603.34V80.46L642.26,34.2h18.62V81.46h9.65V98h-9.65v14.38H642.26Zm0-16.57V57.26l-20.57,24.2Z"/></svg>